<?xml version="1.0" encoding="iso-8859-1"?>
<!-- Generator: Adobe Illustrator 19.0.0, SVG Export Plug-In . SVG Version: 6.00 Build 0)  -->
<svg version="1.1" id="Layer_1" xmlns="http://www.w3.org/2000/svg" xmlns:xlink="http://www.w3.org/1999/xlink" x="0px" y="0px"
	 viewBox="0 0 512 512" style="enable-background:new 0 0 512 512;" xml:space="preserve">
<rect x="8.017" y="315.858" style="fill:#BDBDC0;" width="495.967" height="188.125"/>
<polygon style="fill:#A7A7AB;" points="25.119,486.881 25.119,315.858 8.017,315.858 8.017,503.983 503.983,503.983 
	503.983,486.881 "/>
<rect x="187.591" y="358.614" style="fill:#4E5058;" width="273.637" height="102.614"/>
<rect x="187.591" y="358.614" style="fill:#383A43;" width="17.102" height="102.614"/>
<rect x="256" y="401.37" style="fill:#A7A7AB;" width="51.307" height="34.205"/>
<rect x="59.324" y="8.017" style="fill:#BDBDC0;" width="393.353" height="282.188"/>
<rect x="59.324" y="8.017" style="fill:#A7A7AB;" width="17.102" height="282.188"/>
<rect x="102.079" y="42.221" style="fill:#7A7C82;" width="307.841" height="213.779"/>
<rect x="102.079" y="42.221" style="fill:#A6DE64;" width="256.534" height="213.779"/>
<g>
	<polygon style="fill:#7DBB34;" points="286.642,256 358.614,256 358.614,184.028 	"/>
	<polygon style="fill:#7DBB34;" points="102.079,42.221 102.079,226.071 285.929,42.221 	"/>
	<polygon style="fill:#7DBB34;" points="180.464,256 248.162,256 358.614,145.548 358.614,77.851 	"/>
</g>
<g>
	<rect x="375.716" y="290.205" style="fill:#BDBDC0;" width="34.205" height="25.653"/>
	<rect x="102.079" y="290.205" style="fill:#BDBDC0;" width="34.205" height="25.653"/>
</g>
<path d="M503.983,307.841h-86.046v-9.62h34.739c4.427,0,8.017-3.589,8.017-8.017V8.017c0-4.427-3.589-8.017-8.017-8.017H59.324
	c-4.427,0-8.017,3.589-8.017,8.017v59.858c0,4.427,3.589,8.017,8.017,8.017s8.017-3.589,8.017-8.017V16.033H444.66v266.154H67.34
	V110.63c0-4.427-3.589-8.017-8.017-8.017s-8.017,3.589-8.017,8.017v179.574c0,4.427,3.589,8.017,8.017,8.017h34.739v9.62H8.017
	c-4.427,0-8.017,3.589-8.017,8.017v188.125C0,508.411,3.589,512,8.017,512h495.967c4.427,0,8.017-3.589,8.017-8.017V315.858
	C512,311.431,508.411,307.841,503.983,307.841z M401.904,298.221v9.62h-18.171v-9.62H401.904z M110.096,298.221h18.171v9.62h-18.171
	V298.221z M495.967,495.967H16.033V323.875h274.171c4.427,0,8.017-3.589,8.017-8.017c0-4.427-3.589-8.017-8.017-8.017H144.301v-9.62
	h223.399v9.62H332.96c-4.427,0-8.017,3.589-8.017,8.017c0,4.427,3.589,8.017,8.017,8.017h163.006V495.967z"/>
<path d="M179.574,358.614v102.614c0,4.427,3.589,8.017,8.017,8.017h273.637c4.427,0,8.017-3.589,8.017-8.017V358.614
	c0-4.427-3.589-8.017-8.017-8.017H187.591C183.163,350.597,179.574,354.186,179.574,358.614z M195.608,366.63h257.603v86.58H195.608
	V366.63z"/>
<path d="M153.386,350.597c-4.427,0-8.017,3.589-8.017,8.017v102.614c0,4.427,3.589,8.017,8.017,8.017
	c4.427,0,8.017-3.589,8.017-8.017V358.614C161.403,354.186,157.814,350.597,153.386,350.597z"/>
<path d="M119.182,350.597c-4.427,0-8.017,3.589-8.017,8.017v102.614c0,4.427,3.589,8.017,8.017,8.017
	c4.427,0,8.017-3.589,8.017-8.017V358.614C127.198,354.186,123.609,350.597,119.182,350.597z"/>
<path d="M84.977,350.597c-4.427,0-8.017,3.589-8.017,8.017v102.614c0,4.427,3.589,8.017,8.017,8.017
	c4.427,0,8.017-3.589,8.017-8.017V358.614C92.994,354.186,89.404,350.597,84.977,350.597z"/>
<path d="M50.772,350.597c-4.427,0-8.017,3.589-8.017,8.017v102.614c0,4.427,3.589,8.017,8.017,8.017s8.017-3.589,8.017-8.017
	V358.614C58.789,354.186,55.2,350.597,50.772,350.597z"/>
<path d="M350.063,393.353H213.244c-4.427,0-8.017,3.589-8.017,8.017c0,4.427,3.589,8.017,8.017,8.017h34.739v26.188
	c0,4.427,3.589,8.017,8.017,8.017h51.307c4.427,0,8.017-3.589,8.017-8.017v-26.188h34.739c4.427,0,8.017-3.589,8.017-8.017
	C358.079,396.942,354.49,393.353,350.063,393.353z M299.29,427.557h-35.273v-18.171h35.273V427.557z"/>
<path d="M435.574,393.353h-51.307c-4.427,0-8.017,3.589-8.017,8.017c0,4.427,3.589,8.017,8.017,8.017h51.307
	c4.427,0,8.017-3.589,8.017-8.017C443.591,396.942,440.001,393.353,435.574,393.353z"/>
<path d="M409.921,264.017c4.427,0,8.017-3.589,8.017-8.017V42.221c0-4.427-3.589-8.017-8.017-8.017H102.079
	c-4.427,0-8.017,3.589-8.017,8.017V256c0,4.427,3.589,8.017,8.017,8.017H409.921z M401.904,247.983H366.63V50.238h35.273V247.983z
	 M110.096,50.238h240.501v197.745H110.096V50.238z"/>
<path d="M384.267,212.71h1.069c4.427,0,8.017-3.589,8.017-8.017s-3.589-8.017-8.017-8.017h-1.069c-4.427,0-8.017,3.589-8.017,8.017
	S379.84,212.71,384.267,212.71z"/>
<path d="M385.336,222.33h-1.069c-4.427,0-8.017,3.589-8.017,8.017s3.589,8.017,8.017,8.017h1.069c4.427,0,8.017-3.589,8.017-8.017
	S389.763,222.33,385.336,222.33z"/>
<path d="M384.267,92.994c4.427,0,8.017-3.589,8.017-8.017V67.875c0-4.427-3.589-8.017-8.017-8.017c-4.427,0-8.017,3.589-8.017,8.017
	v17.102C376.251,89.404,379.84,92.994,384.267,92.994z"/>
<path d="M384.267,135.749c4.427,0,8.017-3.589,8.017-8.017V110.63c0-4.427-3.589-8.017-8.017-8.017
	c-4.427,0-8.017,3.589-8.017,8.017v17.102C376.251,132.16,379.84,135.749,384.267,135.749z"/>
<path d="M384.267,178.505c4.427,0,8.017-3.589,8.017-8.017v-17.102c0-4.427-3.589-8.017-8.017-8.017
	c-4.427,0-8.017,3.589-8.017,8.017v17.102C376.251,174.916,379.84,178.505,384.267,178.505z"/>
<g>
</g>
<g>
</g>
<g>
</g>
<g>
</g>
<g>
</g>
<g>
</g>
<g>
</g>
<g>
</g>
<g>
</g>
<g>
</g>
<g>
</g>
<g>
</g>
<g>
</g>
<g>
</g>
<g>
</g>
</svg>
